<svg width="34" height="21" viewBox="0 0 34 21" fill="none" xmlns="http://www.w3.org/2000/svg">
<path d="M7.9658 10.5981C7.67519 10.8932 7.67888 11.3681 7.97404 11.6587L12.7839 16.3945C13.0791 16.6851 13.5539 16.6814 13.8445 16.3862C14.1352 16.0911 14.1315 15.6162 13.8363 15.3256L9.56086 11.116L13.7704 6.84059C14.061 6.54543 14.0574 6.07057 13.7622 5.77996C13.467 5.48935 12.9922 5.49304 12.7016 5.7882L7.9658 10.5981ZM24.494 10.2501L8.49441 10.3743L8.50606 11.8743L24.5057 11.75L24.494 10.2501Z" fill="#767678"/>
<path d="M33.5303 6.53033C33.8232 6.23744 33.8232 5.76256 33.5303 5.46967L28.7574 0.696699C28.4645 0.403806 27.9896 0.403806 27.6967 0.696699C27.4038 0.989592 27.4038 1.46447 27.6967 1.75736L31.9393 6L27.6967 10.2426C27.4038 10.5355 27.4038 11.0104 27.6967 11.3033C27.9896 11.5962 28.4645 11.5962 28.7574 11.3033L33.5303 6.53033ZM17 6.75L33 6.75L33 5.25L17 5.25L17 6.75Z" fill="#767678"/>
</svg>
